<svg xmlns="http://www.w3.org/2000/svg" width="353.4" height="716.1" viewBox="0 0 353.4 716.1"><title>mini-me</title><g id="Back_Leg" data-name="Back Leg"><path d="M99.5,687.8l10.2-101.3a15.8,15.8,0,0,0-11.5-16.8l-19.1-5.2a15.7,15.7,0,0,0-19.6,18.2L80.4,687.8Z" fill="#272b5b"/><path d="M106.9,611.7l2.3-21.9a13.1,13.1,0,0,0-9-13.7L55,561.7l9.2,44.1Z" fill="#14153e"/><path d="M102.2,679.3l-4.7,28.9H54.3c-3.4-14.5,7.8-22.9,24.9-22.9l-1.5-6Z" fill="#8c4b73"/><polygon points="97.8 706.5 53.4 706.5 53.4 710.4 88.2 710.4 89.3 708.4 90.7 710.4 98.2 710.4 97.8 706.5" fill="#370d2a"/><path d="M79.2,685.3s2.1,5.7,2.5,6.6S62,697.4,62,697.4s-3.5-3.7-2.5-6.4S74.4,684.3,79.2,685.3Z" fill="#612f4f"/><path d="M79.2,685.3s2.5,6.3,2.5,6.6-.6.5-.6.5l-2.8-7.3Z" fill="#fff"/><path d="M60.2,690.1l3,5.4.2-7.2a1.9,1.9,0,0,1,.8-.4l4.4,6.8v-8.2c.2-.2.6-.1.6-.1l4.3,7.1.6-8.1a.8.8,0,0,1,.7-.1l6.2,7.1-.5.2-5.8-6.4-.6,8.3h-.7l-4.2-7v8.1l-.6.2-4.4-6.4-.2,7.4-.8.2-3.6-6.4A.8.8,0,0,1,60.2,690.1Z" fill="#fff"/></g><g id="Back_Arm" data-name="Back Arm"><path d="M36.7,510.8c-9.9,13.1-21.1,29.1-33.2,19.9-9.5-7.2,3.6-15.6,2.2-24.2s23.1-7.9,23.1-7.9Z" fill="#dfb28b"/><path d="M95.8,339.9c59.5,33.8-48.8,167-60.4,176C25.6,517.1,13,499,13,499,57.1,457.9,38.2,310.8,95.8,339.9Z" fill="#bd8094"/></g><g id="Bottom_Body" data-name="Bottom Body"><path d="M205.8,586.4c14.3-13.6,18.6-44.1,18.2-52.6l-190.9-13s21.7,46.9,28.7,50.5S130.9,610.6,205.8,586.4Z" fill="#272b5b"/></g><g id="Top_Body" data-name="Top Body"><path d="M142.6,312.8c163.8-13.7,79.6,226.6,79.6,226.6s-156.7,38.2-185.4-11S24.8,305.8,142.6,312.8Z" fill="#e59ab0"/><path d="M142.6,475.8c-7.6,13.7-.5,44.2,8.8,60.3v15.2c-19.1,9.9-99.4,6.5-114.9-21.8-14-14-25.7-61.4-3.7-72.8C40.1,464.1,137.1,478,142.6,475.8Z" fill="#d08ca1"/></g><g id="Front_Arm" data-name="Front Arm"><path d="M251.7,512.4c0,17.2.7,37.6-14.7,37.6-12.1,0-6.7-15.3-13-21.6s13.8-21.2,13.8-21.2Z" fill="#dfb28b"/><path d="M194.8,332.4c68.8-9.3,62.8,170.3,58.9,185.1-7.2,7.2-28.4,0-28.4,0C235.7,455.4,130.3,344.5,194.8,332.4Z" fill="#bd8094"/></g><g id="Front_Leg" data-name="Front Leg"><path d="M196.1,689.3c2.8-39.1,6-73.8,8.5-98a30,30,0,0,0-32.2-33h0a30,30,0,0,0-26.5,38.3c10.1,34.6,23.8,83.6,23.8,92.7Z" fill="#272b5b"/><path d="M198.9,683l-5.2,30H145.5c-5.8-14.4,9.5-23.3,22.4-23.3l-2.5-6.7Z" fill="#904d76"/><polygon points="194.3 712.1 144.3 712.1 144.3 716.1 184.7 716.1 185.8 714.1 187.2 716.1 194.7 716.1 194.3 712.1" fill="#370d2a"/><path d="M167.8,689.7s2.5,5.5,3,6.4-19.4,6.7-19.4,6.7-3.7-3.6-2.9-6.3S163,689,167.8,689.7Z" fill="#612f4f"/><path d="M167.8,689.7s3,6.1,3,6.4-.6.5-.6.5l-3.2-7A1.2,1.2,0,0,1,167.8,689.7Z" fill="#fff"/><path d="M149.1,695.6l3.4,5.2-.2-7.2a1.4,1.4,0,0,1,.8-.4l4.7,6.5-.4-8.2a1.2,1.2,0,0,1,.7-.2l4.7,6.9v-8.1l.8-.2,6.6,6.7-.5.3-6.2-6.1v8.3l-.7.2-4.6-6.7.4,8-.6.3-4.7-6.1.2,7.4-.8.2-4-6.2A.6.6,0,0,1,149.1,695.6Z" fill="#fff"/></g><g id="neck"><path id="neck-2" data-name="neck" d="M192,286.1V339S90.5,388.9,87.3,339l4.3-49Z" fill="#dfb28b"/><path d="M95.6,388.9c-16-24.5-21-44.5-27.4-48.3-17-10.2,5.1-47.6,21.3-45.1,3.8,15,7.6,63.2,24.3,69.2C119.7,366.8,95.6,388.9,95.6,388.9Z" fill="#bd8094"/></g><g id="Bun"><circle id="bun-2" data-name="bun" cx="298.3" cy="55.1" r="55.1" fill="#7d4921"/><path d="M274.1,91.5s102.7-13.3,46.3-59S274.1,91.5,274.1,91.5Z" fill="#8e572a"/><path d="M286.6,77.4s61.6-8,27.8-35.4S286.6,77.4,286.6,77.4Z" fill="#7d4921"/></g><g id="head"><path id="back_hari" data-name="back hari" d="M130,47.6c59.8-28.6,164.2,1.7,181,75.8s-32.8,156.1-87.9,135.2C223.1,258.6,206.9,54.2,130,47.6Z" fill="#7d4921"/><path d="M66.7,54.2c-45.2,18.2-77.8,65.4-18,114.9Z" fill="#7d4921"/><path id="face" d="M32.1,91.5c-23.9,36.9.7,65.5,2.2,79.9s-23.2,27.9-23.2,60.2,28.3,81.2,97.7,88.9c79.3,4,122.3-47.4,122.3-72.7,11,4.7,24.3,1.1,24.3-17.3s-6.3-31.2-21.7-15.8C233.7,214.7,255.4,13.8,32.1,91.5Z" fill="#ecc19c"/><path id="mouth" d="M59.8,261.2c14.7,4.4,25.9,10.3,31.4,4.7" fill="none" stroke="#cf9e76" stroke-linecap="round" stroke-miterlimit="10" stroke-width="2.2"/><path d="M76.7,217.5c-19.1-15.2-37.9-1.4-20.4,13.9" fill="none" stroke="#cf9e76" stroke-linecap="round" stroke-miterlimit="10" stroke-width="2.2"/></g><g id="Glasses"><g id="glasses-2" data-name="glasses"><path d="M167.2,171.4l-6,60.2s-59.7-3.1-63-11.2-6.6-57.3-6.6-57.3S161.5,160,167.2,171.4Z" fill="#cfcfce"/><path d="M12.5,150.2c11.2,0,39.2,3.3,41.1,9s-2.4,46.9-5,46.9-29-1.1-30.1-5.5S12.5,150.2,12.5,150.2Z" fill="#cfcfce"/><path id="Glasses-3" data-name="Glasses" d="M17.4,204.1c2.7,2.7,30.9,8.1,34.4,4.6,1.2-1.2,2.3-7.8,3.2-16.2,8.9-7.5,22.8-6,35.5,4.5,1.6,12.1,3.8,23.3,6.5,27.2,6.3,9.1,61.9,12.9,67.5,11.5,3.4-.8,6.6-23.6,7.8-42.5h49.6l1.1-11-50.3-3c-.1-4.9-.4-8.7-1.1-10.4-3.3-8-56.2-18-82.9-9.4-2,1.2-.5,15.4.9,29.4-10.4-11.5-26.2-9.4-33.8-4.7,1.2-14.5,1.7-25.7.8-28.1s-42.2-10.5-45.5-7.2S14.6,201.3,17.4,204.1Zm77.5-37.3c22.4-5.7,62.5,1.2,65.2,7.5s-1.4,49.5-5.8,50.7-47.8.9-52.8-6.4S93.3,170.6,94.9,166.8ZM15.3,155.2c2.6-2.6,30,3.7,34.6,5.7,1.2,3.6-1.1,38.5-3.8,41.3s-23.7-1.4-25.9-3.6S12.6,157.9,15.3,155.2Z" fill="#1e1e1e"/></g></g><g id="Bangs"><path id="side_bang" data-name="side bang" d="M188.9,81c-20.6,60.6,8.4,79,19.8,132.2,8.2,36-18,41.5-15,21-17.4,17.3,2.8,29.8,12.1,27.2,13.5-3.9,40.7-45.9,22.7-113.9S188.9,81,188.9,81Z" fill="#7d4921"/><path id="bangs_hair" data-name="bangs hair" d="M35.4,53.9C73.6-2,125,24.5,172.7,53.9L188.9,81c9.5,44.8-36.7,73.5-59.5,58.1,25.6-11.1,26.1-31,32.5-39.7-34,39.3-91.2,26.9-86.1,62.4-14.9-17.7-22.9-43.6-19.9-66.5a56.5,56.5,0,0,0-6.6,43S-2.8,109.7,35.4,53.9Z" fill="#8e572a"/></g><g id="hood"><path id="front_hood" data-name="front hood" d="M91.6,395.2c8.8-48.5,123-136,146.7-101.3,3.8,16.5-3.8,21-3.8,21C251.4,352.9,204.1,314.9,91.6,395.2Z" fill="#d08ca1"/></g></svg>